<svg width="12" height="12" viewBox="0 0 12 12" fill="none" xmlns="http://www.w3.org/2000/svg">
<path d="M10.2353 2.64593C9.88235 1.94035 8.47059 1.23477 7.76471 1.23477C7.76471 1.23477 8.18612 0.467801 7.41177 0.176396C7.06341 0.0451572 6.70588 0 6 0C5.43 0 4.93659 0.0451572 4.58824 0.176396C3.81388 0.467801 4.23529 1.23477 4.23529 1.23477C3.52941 1.23477 2.11765 1.94035 1.76471 2.64593C1.41176 3.35151 0 10.3964 0 11.6421C0 11.9949 1.63482 12.1466 1.76471 11.8185C2.04388 11.1129 2.82353 6.17384 2.82353 6.17384V11.4657C2.82353 12.1713 4.58824 11.8185 6 11.8185C7.41177 11.8185 9.17647 12.1713 9.17647 11.4657V6.17384C9.17647 6.17384 10.0676 11.508 10.2353 11.8185C10.4114 12.1441 12 11.9949 12 11.6421C12 10.3964 10.5882 3.35151 10.2353 2.64593Z" fill="#55ACEE"/>
<path d="M4.58838 0.529213C4.58838 0.334472 4.58838 0.176422 6.00014 0.176422C7.41191 0.176422 7.41191 0.334472 7.41191 0.529213C7.41191 0.723954 6.77979 1.2348 6.00014 1.2348C5.2205 1.2348 4.58838 0.723954 4.58838 0.529213Z" fill="#226699"/>
<path d="M5.99982 11.6421C5.9024 11.6421 5.82335 11.5631 5.82335 11.4657V1.58757C5.82335 1.4902 5.9024 1.41118 5.99982 1.41118C6.09723 1.41118 6.17629 1.4902 6.17629 1.58757V11.4657C6.17629 11.5631 6.09723 11.6421 5.99982 11.6421ZM4.4557 11.2992C3.82252 11.2992 3.19782 11.2368 3.15864 11.2329C3.06158 11.2234 2.99099 11.1369 3.00087 11.0395C3.01076 10.9432 3.09723 10.8706 3.19429 10.8822C3.20876 10.8833 4.62158 11.0237 5.30664 10.8847C5.40264 10.8653 5.49546 10.9267 5.51487 11.0226C5.53429 11.1182 5.47287 11.211 5.37723 11.2308C5.12311 11.2819 4.78817 11.2992 4.4557 11.2992ZM4.11335 10.2112C3.62699 10.2112 3.18617 10.1833 3.09652 10.1773C2.99946 10.1706 2.9257 10.0867 2.9324 9.98964C2.93911 9.89262 3.01923 9.81677 3.12052 9.82524C3.58746 9.85664 4.88593 9.90391 5.27664 9.74798C5.36735 9.712 5.4697 9.75539 5.50605 9.84606C5.5424 9.93672 5.49829 10.0394 5.40758 10.075C5.13829 10.183 4.60287 10.2112 4.11335 10.2112ZM4.54287 9.08967C3.96052 9.08967 3.28958 9.03922 3.09405 9.02335C2.99699 9.01559 2.92464 8.93021 2.9324 8.83355C2.94052 8.73653 3.02699 8.66456 3.12264 8.67197C4.03111 8.74535 5.08111 8.76898 5.2657 8.68043C5.35393 8.63845 5.45911 8.6755 5.50111 8.76334C5.54311 8.85119 5.50605 8.95667 5.41817 8.99865C5.27382 9.0678 4.92758 9.08967 4.54287 9.08967ZM4.52911 7.99955C3.9044 7.99955 3.20558 7.92617 3.08911 7.91347C2.9924 7.90288 2.92217 7.8161 2.93276 7.71873C2.94299 7.62206 3.02876 7.55009 3.12723 7.56279C3.60158 7.61465 4.91276 7.71731 5.27699 7.57408C5.36699 7.53739 5.47005 7.5829 5.50605 7.67322C5.5417 7.76424 5.49723 7.86655 5.40652 7.90182C5.22052 7.97521 4.88699 7.99955 4.52911 7.99955ZM4.5457 6.75631C3.92699 6.75631 3.21617 6.7168 3.09793 6.70974C3.00052 6.7041 2.9264 6.62084 2.93205 6.52347C2.9377 6.42645 3.01993 6.34531 3.1184 6.35766C3.60617 6.38588 4.94911 6.44127 5.30276 6.36189C5.39805 6.34002 5.49229 6.39964 5.51382 6.49489C5.53535 6.59015 5.4757 6.68434 5.3804 6.70586C5.21276 6.74326 4.8937 6.75631 4.5457 6.75631ZM3.10817 5.60057C3.01287 5.60057 2.93452 5.46968 2.9317 5.37408C2.92923 5.27671 3.00617 5.16805 3.10358 5.16558L5.33699 5.09326C5.42382 5.09714 5.51558 5.16064 5.51805 5.25801C5.52052 5.35538 5.44358 5.48803 5.34617 5.4905L3.11276 5.60057H3.10817ZM5.48876 1.94036H5.48029C5.13687 1.94036 4.56687 1.62144 4.50299 1.58616C4.41758 1.53924 4.38617 1.43481 4.43346 1.34944C4.4804 1.26406 4.58805 1.23478 4.67311 1.281C4.88699 1.39848 5.29958 1.58863 5.49688 1.5978C5.59429 1.60239 5.66946 1.68 5.66488 1.77702C5.66064 1.87192 5.58229 1.94036 5.48876 1.94036ZM9.02523 3.98091C8.98852 3.98091 8.95111 3.96926 8.91934 3.94563C8.84134 3.88706 8.82546 3.77664 8.8837 3.69867L9.69299 2.61631C9.75193 2.53799 9.8624 2.52317 9.94005 2.58103C10.0181 2.63959 10.0339 2.75002 9.9757 2.82798L9.1664 3.91035C9.13182 3.95656 9.07887 3.98091 9.02523 3.98091Z" fill="#3B88C3"/>
<path d="M6.01536 11.6421C5.91794 11.6421 5.83889 11.5631 5.83889 11.4657V1.58755C5.83889 1.49018 5.91794 1.41115 6.01536 1.41115C6.11277 1.41115 6.19183 1.49018 6.19183 1.58755V11.4657C6.19183 11.5631 6.11277 11.6421 6.01536 11.6421ZM9.35877 5.02373C9.285 5.02373 9.21618 4.97716 9.19112 4.90308C9.16041 4.81065 9.21053 4.71081 9.30265 4.68011L10.3615 4.32732C10.4539 4.29663 10.5538 4.34637 10.5849 4.4388C10.6156 4.53124 10.5655 4.63107 10.4734 4.66177L9.41453 5.01456C9.39583 5.02091 9.37712 5.02373 9.35877 5.02373ZM9.57477 6.2518C9.501 6.2518 9.43218 6.20488 9.40712 6.13114C9.37642 6.03871 9.42653 5.93887 9.51865 5.90783L10.5775 5.55503C10.6703 5.5254 10.7698 5.57409 10.8009 5.66652C10.8316 5.75895 10.7815 5.85879 10.6894 5.88948L9.63053 6.24227C9.61183 6.24897 9.59347 6.2518 9.57477 6.2518ZM9.77806 7.48127C9.7043 7.48127 9.63547 7.43435 9.61041 7.36062C9.57971 7.26819 9.62983 7.16835 9.72194 7.1373L10.7808 6.78451C10.8732 6.75382 10.9731 6.80392 11.0042 6.89599C11.0349 6.98842 10.9848 7.08826 10.8927 7.11931L9.83383 7.4721C9.81547 7.4788 9.79677 7.48127 9.77806 7.48127ZM10.0047 8.71181C9.93089 8.71075 9.86277 8.66277 9.83912 8.58868C9.80983 8.4959 9.86136 8.39677 9.95418 8.36713L11.0179 8.03022C11.1108 8.00129 11.2099 8.05244 11.2396 8.14523C11.2689 8.23801 11.2174 8.33714 11.1245 8.36678L10.0608 8.70369C10.0417 8.70969 10.023 8.71216 10.0047 8.71181ZM10.2143 9.91306C10.1409 9.90706 10.0759 9.85485 10.0572 9.77935C10.0343 9.68481 10.0922 9.5892 10.1868 9.56592L11.2706 9.29991C11.3656 9.27698 11.4609 9.33484 11.4842 9.42939C11.5071 9.52393 11.4492 9.61954 11.3547 9.64282L10.2708 9.90883C10.2517 9.91341 10.233 9.91483 10.2143 9.91306ZM10.4179 11.1263C10.3445 11.1193 10.2803 11.066 10.2627 10.9901C10.2411 10.8952 10.3004 10.8007 10.3954 10.7788L11.4831 10.5297C11.5781 10.5082 11.6726 10.5675 11.6945 10.6624C11.7161 10.7573 11.6568 10.8518 11.5618 10.8737L10.4741 11.1228C10.4554 11.1274 10.4367 11.1281 10.4179 11.1263ZM7.55947 11.2992C7.227 11.2992 6.89206 11.2819 6.6383 11.2304C6.54265 11.2106 6.48124 11.1178 6.5003 11.0222C6.52006 10.9266 6.61465 10.8649 6.70853 10.8843C7.3943 11.0251 8.80712 10.8832 8.82089 10.8818C8.91653 10.8705 9.00477 10.9422 9.0143 11.0392C9.02418 11.1362 8.95359 11.223 8.85689 11.2325C8.817 11.2367 8.19265 11.2992 7.55947 11.2992ZM7.90218 10.2112C7.4123 10.2112 6.87724 10.1829 6.60794 10.0753C6.51724 10.0394 6.47347 9.9367 6.50983 9.84638C6.54618 9.75607 6.64924 9.71127 6.73889 9.74831C7.12994 9.90389 8.42806 9.85732 8.895 9.82557C8.98253 9.81957 9.07642 9.89225 9.08277 9.98997C9.08947 10.087 9.01606 10.1713 8.9183 10.1777C8.829 10.1833 8.38818 10.2112 7.90218 10.2112ZM7.4723 9.08965C7.08724 9.08965 6.74136 9.06777 6.59736 8.99863C6.50947 8.95665 6.47242 8.85116 6.51442 8.76332C6.55642 8.67547 6.6623 8.63878 6.74983 8.68041C6.93477 8.76896 7.98406 8.74568 8.89289 8.67194C8.98853 8.66453 9.07536 8.7365 9.08277 8.83352C9.09053 8.93019 9.01818 9.01556 8.92112 9.02332C8.72594 9.0392 8.05465 9.08965 7.4723 9.08965ZM7.48571 7.99952C7.12783 7.99952 6.79465 7.97553 6.60865 7.90215C6.51794 7.86652 6.47347 7.76421 6.50947 7.67354C6.54547 7.58288 6.64783 7.53772 6.73818 7.57441C7.10206 7.71694 8.41324 7.61498 8.88759 7.56312C8.98324 7.55254 9.07147 7.62204 9.08241 7.71905C9.093 7.81607 9.02312 7.90286 8.92642 7.91379C8.80924 7.92614 8.11041 7.99952 7.48571 7.99952ZM7.46312 6.75629C8.08183 6.75629 8.79265 6.71677 8.91089 6.70972C9.0083 6.70407 9.08242 6.62082 9.07677 6.52345C9.07112 6.42643 8.98889 6.34529 8.89042 6.35763C8.40265 6.38586 7.05971 6.44125 6.70606 6.36187C6.61112 6.33999 6.51653 6.39962 6.495 6.49487C6.47347 6.59012 6.53312 6.68432 6.62842 6.70584C6.79642 6.74323 7.11547 6.75629 7.46312 6.75629ZM8.90665 5.60054H8.90206L6.66865 5.48695C6.57124 5.48448 6.4943 5.37582 6.49677 5.27845C6.49924 5.18143 6.58536 5.09817 6.67783 5.09288L8.91124 5.14474C9.00865 5.14721 9.08559 5.27986 9.08312 5.37723C9.08065 5.47319 9.0023 5.60054 8.90665 5.60054ZM6.72089 4.32168C6.63159 4.32168 6.555 4.25429 6.54583 4.16327C6.53594 4.06661 6.60618 3.97982 6.70289 3.96959L8.40336 3.79355C8.49759 3.78367 8.58724 3.85388 8.59712 3.95089C8.607 4.04756 8.53677 4.13435 8.44006 4.14458L6.73959 4.32062L6.72089 4.32168ZM6.75053 3.07033C6.681 3.07033 6.61465 3.0287 6.58712 2.96026C6.55042 2.86994 6.59418 2.76728 6.68418 2.73059C7.24889 2.50198 8.83536 2.40249 8.91018 2.39826C9.0203 2.38944 9.09053 2.46847 9.09512 2.56548C9.10042 2.66285 9.02559 2.74576 8.92783 2.7507C8.43618 2.7761 7.23971 2.88582 6.81653 3.05727C6.795 3.06609 6.77242 3.07033 6.75053 3.07033ZM2.99842 3.98088C3.03512 3.98088 3.07253 3.96924 3.1043 3.9456C3.1823 3.88704 3.19818 3.77662 3.13994 3.69865L2.33065 2.61629C2.27171 2.53797 2.16124 2.52315 2.08359 2.58101C2.00559 2.63957 1.98971 2.74999 2.0483 2.82796L2.85759 3.91032C2.89183 3.95654 2.94512 3.98088 2.99842 3.98088ZM2.66524 5.02373C2.739 5.02373 2.80783 4.97716 2.83289 4.90308C2.86359 4.81065 2.81347 4.71081 2.72136 4.68011L1.66253 4.32732C1.57006 4.29663 1.47018 4.34637 1.43912 4.4388C1.40842 4.53124 1.45853 4.63107 1.55065 4.66177L2.60947 5.01456C2.62783 5.02091 2.64653 5.02373 2.66524 5.02373ZM2.44924 6.2518C2.523 6.2518 2.59183 6.20488 2.61689 6.13114C2.64759 6.03871 2.59747 5.93887 2.50536 5.90783L1.44653 5.55503C1.35371 5.5254 1.25418 5.57409 1.22312 5.66652C1.19242 5.75895 1.24253 5.85879 1.33465 5.88948L2.39347 6.24227C2.41183 6.24897 2.43053 6.2518 2.44924 6.2518ZM2.24559 7.48127C2.31936 7.48127 2.38818 7.43435 2.41324 7.36062C2.44394 7.26819 2.39383 7.16835 2.30171 7.1373L1.24289 6.78451C1.15042 6.75382 1.05053 6.80392 1.01947 6.89599C0.988768 6.98842 1.03889 7.08826 1.131 7.11931L2.18983 7.4721C2.20853 7.4788 2.22724 7.48127 2.24559 7.48127ZM2.01936 8.71181C2.09312 8.71075 2.16124 8.66277 2.18489 8.58868C2.21418 8.4959 2.16265 8.39677 2.06983 8.36713L1.00606 8.03022C0.913239 8.00129 0.814063 8.05244 0.784415 8.14523C0.755121 8.23801 0.806651 8.33714 0.899474 8.36678L1.96324 8.70369C1.98194 8.70969 2.00065 8.71216 2.01936 8.71181ZM1.80936 9.91306C1.88277 9.90706 1.94771 9.85485 1.96642 9.77935C1.98936 9.68481 1.93147 9.5892 1.83689 9.56592L0.753004 9.29991C0.658063 9.27698 0.562768 9.33484 0.539474 9.42939C0.516533 9.52393 0.574415 9.61954 0.669004 9.64282L1.75289 9.90883C1.7723 9.91341 1.791 9.91483 1.80936 9.91306ZM1.60571 11.1263C1.67912 11.1193 1.74336 11.066 1.761 10.9901C1.78253 10.8952 1.72324 10.8007 1.6283 10.7788L0.540533 10.5297C0.445592 10.5082 0.351004 10.5675 0.329121 10.6624C0.307592 10.7573 0.366886 10.8518 0.461827 10.8737L1.54959 11.1228C1.5683 11.1274 1.58736 11.1281 1.60571 11.1263ZM5.30277 4.32168C5.39206 4.32168 5.46865 4.25429 5.47783 4.16327C5.48771 4.06661 5.41747 3.97982 5.32077 3.96959L3.6203 3.79355C3.52606 3.78367 3.43642 3.85388 3.42653 3.95089C3.41665 4.04756 3.48689 4.13435 3.58359 4.14458L5.28406 4.32062L5.30277 4.32168ZM5.27347 3.07033C5.343 3.07033 5.40936 3.0287 5.43689 2.96026C5.47359 2.86994 5.42983 2.76728 5.33983 2.73059C4.77512 2.50198 3.18865 2.40249 3.11383 2.39826C3.00336 2.38909 2.93347 2.46847 2.92853 2.56513C2.92324 2.6625 2.99806 2.74576 3.09583 2.7507C3.58783 2.7761 4.78394 2.88582 5.20712 3.05727C5.229 3.06609 5.25124 3.07033 5.27347 3.07033ZM6.52642 1.94034C6.43253 1.94034 6.35453 1.87225 6.34995 1.7777C6.34536 1.68033 6.42089 1.6006 6.51794 1.59601C6.71594 1.58684 7.12818 1.39845 7.34171 1.28132C7.42747 1.23476 7.53512 1.2658 7.58171 1.35153C7.62865 1.43691 7.59724 1.53921 7.51218 1.58578C7.4483 1.62106 6.87794 1.94034 6.53489 1.94034H6.52642Z" fill="#3B88C3"/>
</svg>
