<svg width="35" height="35" viewBox="0 0 35 35" fill="none" xmlns="http://www.w3.org/2000/svg">
<circle cx="17.5" cy="17.5" r="17.5" fill="#008C8C"/>
<path d="M22.8629 20.278C22.1105 21.3115 20.8916 21.9845 19.5183 21.9845H17.5914C16.9258 21.9845 16.3589 21.5619 16.1443 20.9705C15.8793 20.8914 15.6195 20.7888 15.366 20.6628C14.829 20.3961 14.3415 20.0346 13.9123 19.5869C11.1285 20.1985 9.04492 22.679 9.04492 25.6466V26.0345C9.04492 26.5677 9.47719 27 10.0104 27H24.99C25.5232 27 25.9555 26.5677 25.9555 26.0345V25.6466C25.9555 23.3541 24.712 21.3523 22.8629 20.278Z" fill="white"/>
<path d="M12.886 17.5969C13.3009 17.5969 13.6621 17.3669 13.8492 17.0275C13.8542 17.0409 13.8592 17.0543 13.8642 17.0676C13.8657 17.0717 13.8672 17.0757 13.8687 17.0797C14.3076 18.2351 15.1618 19.2038 16.288 19.627C16.5604 19.1942 17.0421 18.9063 17.5913 18.9063H19.5182C19.7104 18.9063 19.8893 18.8521 20.0461 18.7644C20.3095 18.6171 20.5464 18.2435 20.6687 18.0455C20.8644 17.7286 21.016 17.3929 21.1505 17.0269C21.2261 17.1642 21.33 17.2835 21.4545 17.3771V17.8496C21.4545 18.9172 20.5859 19.7859 19.5182 19.7859H17.5913C17.227 19.7859 16.9317 20.0812 16.9317 20.4455C16.9317 20.8098 17.227 21.1051 17.5913 21.1051H19.5182C21.3133 21.1051 22.7737 19.6447 22.7737 17.8496V17.3771C23.0407 17.1765 23.2135 16.8572 23.2135 16.4976V14.5086V13.7459C23.2135 13.3789 23.0334 13.0541 22.757 12.8544C22.5427 10.1418 20.2668 8 17.5 8C14.7332 8 12.4574 10.1418 12.243 12.8544C11.9666 13.0541 11.7866 13.3789 11.7866 13.7459V16.4975C11.7866 17.1064 12.2813 17.5969 12.886 17.5969ZM17.5 9.31926C19.5482 9.31926 21.2376 10.8845 21.4351 12.8816C21.3054 12.9836 21.1992 13.1139 21.1261 13.2635C20.5037 11.6396 19.1143 10.5091 17.5 10.5091C15.8509 10.5091 14.4838 11.6785 13.8764 13.257C13.8755 13.2592 13.8747 13.2613 13.8739 13.2635C13.8008 13.114 13.6946 12.9837 13.5649 12.8817C13.7625 10.8845 15.4518 9.31926 17.5 9.31926Z" fill="white"/>
</svg>
