<svg width="15" height="13" viewBox="0 0 15 13" fill="none" xmlns="http://www.w3.org/2000/svg">
<path d="M1.2207 2.86C1.2207 2.86 1.33547 2.487 1.79917 1.8367C2.26287 1.1864 3.47128 0.204581 3.69068 0.0957185C3.90966 -0.013144 4.09995 -0.0681913 4.28476 0.148301C4.42484 0.312211 5.29359 1.86669 6.12395 2.47385C7.10916 3.19399 8.18592 3.09786 8.83443 2.93477C9.20066 2.84275 9.43104 2.72896 9.43104 2.72896C9.43104 2.72896 10.9799 6.1382 11.2559 6.82096C11.347 7.0469 11.4301 7.26873 11.5162 7.45688C11.812 8.10348 12.2926 8.64204 12.8436 9.12473C13.3951 9.60742 13.9022 9.91347 14.0398 10.0248C14.1773 10.1361 15.5482 10.9462 14.7537 12.1532C14.7537 12.1532 11.6947 11.7231 8.68211 9.72656C6.34631 8.17824 6.22268 6.91544 3.43415 4.81008C1.57344 3.40596 1.2207 2.86 1.2207 2.86Z" fill="#C36446"/>
<path d="M6.37289 8.42307C6.80579 8.90987 7.54332 9.7705 8.64076 10.4508C11.6618 12.324 14.8545 12.3507 14.8545 12.3507L14.9085 12.1794C14.9309 12.1026 14.8828 12.0619 14.822 12.0488C14.5326 11.9855 13.5339 11.7641 13.0136 11.5715C11.9263 11.1685 10.7534 10.901 9.15847 9.82308C7.56357 8.74514 6.79861 7.75634 6.08977 7.00827C5.38093 6.2602 3.89405 4.82691 2.82108 4.10225C1.99283 3.54274 1.50044 3.0202 1.31901 2.8111C1.27682 2.76263 1.22829 2.78563 1.19117 2.83781L0.823242 3.35501C0.823242 3.35542 5.02524 6.90721 6.37289 8.42307Z" fill="#803F29"/>
<path d="M9.16633 8.13264L9.03764 7.95723C6.97483 5.1494 5.04196 5.58855 4.67404 5.70522C4.61244 5.72493 4.38797 5.7919 4.38797 5.7919L4.20654 5.21513C4.20696 5.21513 4.42131 5.15104 4.4808 5.13215C4.91159 4.99535 7.13052 4.47733 9.39586 7.41374C9.62834 7.30775 10.0465 7.08099 10.5376 6.65047C10.4102 6.3054 10.1195 5.53802 9.81568 4.88977C9.40852 4.02011 8.83343 2.93436 8.83343 2.93436C9.08448 2.87027 9.43004 2.72855 9.43004 2.72855C9.43004 2.72855 9.96715 3.75843 10.3794 4.6396C10.7954 5.52816 11.1743 6.59337 11.1903 6.63815L11.2545 6.82054L11.1114 6.95405C10.1722 7.83112 9.40978 8.06075 9.37772 8.0702L9.16633 8.13264Z" fill="#803F29"/>
<path d="M3.77311 7.35788C3.97986 7.33241 4.37985 7.07073 4.52542 7.09538C4.67098 7.12044 5.64522 8.13348 6.0912 8.61822C6.53718 9.10297 7.3072 9.93566 8.38861 10.6661C9.47001 11.3969 11.0902 12.0328 12.1054 12.4066C13.1205 12.7805 14.1935 12.9887 14.4129 12.999C14.6327 13.0093 14.6197 12.9382 14.6597 12.8618C14.6998 12.7854 14.8538 12.3504 14.8538 12.3504C14.8538 12.3504 13.9053 12.2275 12.8071 11.8171C11.7088 11.4067 10.521 11.129 8.90674 10.0384C7.29243 8.94768 6.51608 7.95108 5.79753 7.19603C5.07899 6.44138 3.57185 4.99454 2.48623 4.26085C1.6487 3.69517 1.21284 3.2133 1.01876 3.01078C0.949138 2.93848 0.858423 2.98531 0.803572 3.06007L0.0656162 4.00779C0.00106091 4.09858 -0.0698233 4.35656 0.14072 4.57223C0.351263 4.78873 3.56637 7.38335 3.77311 7.35788ZM8.66666 4.27974C8.52911 4.27974 8.39747 4.20333 8.33671 4.07393C8.25317 3.89688 8.33291 3.68696 8.51476 3.60562L9.52107 3.15538C9.70376 3.07404 9.91895 3.15168 10.0025 3.32874C10.086 3.50579 10.0063 3.71571 9.82443 3.79705L8.81813 4.24729C8.76876 4.26947 8.71729 4.27974 8.66666 4.27974ZM9.28858 5.47189C9.15272 5.47189 9.02234 5.39712 8.96032 5.26978C8.87467 5.09354 8.95188 4.8828 9.13289 4.79941L10.1333 4.33849C10.3156 4.2551 10.5307 4.33027 10.6168 4.50651C10.7025 4.68274 10.6253 4.89348 10.4442 4.97687L9.44385 5.43779C9.39322 5.4608 9.34048 5.47189 9.28858 5.47189ZM9.87802 6.72032C9.74427 6.72032 9.616 6.64802 9.55271 6.52354C9.46368 6.34854 9.53752 6.13698 9.71684 6.0503L10.6556 5.59801C10.8358 5.51092 11.0522 5.58322 11.1417 5.75781C11.2307 5.93281 11.1569 6.14437 10.9776 6.23105L10.0388 6.68334C9.98688 6.70881 9.93203 6.72032 9.87802 6.72032Z" fill="#292F33"/>
</svg>
