<svg width="14" height="16" viewBox="0 0 14 16" fill="none" xmlns="http://www.w3.org/2000/svg">
<path d="M4.50016 2.16666C4.27915 2.16666 4.06719 2.25446 3.91091 2.41074C3.75463 2.56702 3.66683 2.77898 3.66683 3C3.66683 3.22101 3.75463 3.43297 3.91091 3.58925C4.06719 3.74553 4.27915 3.83333 4.50016 3.83333C4.72118 3.83333 4.93314 3.74553 5.08942 3.58925C5.2457 3.43297 5.3335 3.22101 5.3335 3C5.3335 2.77898 5.2457 2.56702 5.08942 2.41074C4.93314 2.25446 4.72118 2.16666 4.50016 2.16666ZM2.14183 2.16666C2.314 1.67872 2.63328 1.25619 3.05566 0.957322C3.47805 0.658452 3.98273 0.497955 4.50016 0.497955C5.01759 0.497955 5.52228 0.658452 5.94466 0.957322C6.36705 1.25619 6.68633 1.67872 6.8585 2.16666H12.8335C13.0545 2.16666 13.2665 2.25446 13.4228 2.41074C13.579 2.56702 13.6668 2.77898 13.6668 3C13.6668 3.22101 13.579 3.43297 13.4228 3.58925C13.2665 3.74553 13.0545 3.83333 12.8335 3.83333H6.8585C6.68633 4.32127 6.36705 4.7438 5.94466 5.04267C5.52228 5.34154 5.01759 5.50204 4.50016 5.50204C3.98273 5.50204 3.47805 5.34154 3.05566 5.04267C2.63328 4.7438 2.314 4.32127 2.14183 3.83333H1.16683C0.945816 3.83333 0.733854 3.74553 0.577574 3.58925C0.421294 3.43297 0.333496 3.22101 0.333496 3C0.333496 2.77898 0.421294 2.56702 0.577574 2.41074C0.733854 2.25446 0.945816 2.16666 1.16683 2.16666H2.14183ZM9.50016 7.16666C9.27915 7.16666 9.06719 7.25446 8.91091 7.41074C8.75463 7.56702 8.66683 7.77898 8.66683 8C8.66683 8.22101 8.75463 8.43297 8.91091 8.58925C9.06719 8.74553 9.27915 8.83333 9.50016 8.83333C9.72118 8.83333 9.93314 8.74553 10.0894 8.58925C10.2457 8.43297 10.3335 8.22101 10.3335 8C10.3335 7.77898 10.2457 7.56702 10.0894 7.41074C9.93314 7.25446 9.72118 7.16666 9.50016 7.16666ZM7.14183 7.16666C7.314 6.67872 7.63328 6.25619 8.05566 5.95732C8.47805 5.65845 8.98273 5.49795 9.50016 5.49795C10.0176 5.49795 10.5223 5.65845 10.9447 5.95732C11.367 6.25619 11.6863 6.67872 11.8585 7.16666H12.8335C13.0545 7.16666 13.2665 7.25446 13.4228 7.41074C13.579 7.56702 13.6668 7.77898 13.6668 8C13.6668 8.22101 13.579 8.43297 13.4228 8.58925C13.2665 8.74553 13.0545 8.83333 12.8335 8.83333H11.8585C11.6863 9.32127 11.367 9.7438 10.9447 10.0427C10.5223 10.3415 10.0176 10.502 9.50016 10.502C8.98273 10.502 8.47805 10.3415 8.05566 10.0427C7.63328 9.7438 7.314 9.32127 7.14183 8.83333H1.16683C0.945816 8.83333 0.733854 8.74553 0.577574 8.58925C0.421294 8.43297 0.333496 8.22101 0.333496 8C0.333496 7.77898 0.421294 7.56702 0.577574 7.41074C0.733854 7.25446 0.945816 7.16666 1.16683 7.16666H7.14183ZM4.50016 12.1667C4.27915 12.1667 4.06719 12.2545 3.91091 12.4107C3.75463 12.567 3.66683 12.779 3.66683 13C3.66683 13.221 3.75463 13.433 3.91091 13.5893C4.06719 13.7455 4.27915 13.8333 4.50016 13.8333C4.72118 13.8333 4.93314 13.7455 5.08942 13.5893C5.2457 13.433 5.3335 13.221 5.3335 13C5.3335 12.779 5.2457 12.567 5.08942 12.4107C4.93314 12.2545 4.72118 12.1667 4.50016 12.1667ZM2.14183 12.1667C2.314 11.6787 2.63328 11.2562 3.05566 10.9573C3.47805 10.6585 3.98273 10.498 4.50016 10.498C5.01759 10.498 5.52228 10.6585 5.94466 10.9573C6.36705 11.2562 6.68633 11.6787 6.8585 12.1667H12.8335C13.0545 12.1667 13.2665 12.2545 13.4228 12.4107C13.579 12.567 13.6668 12.779 13.6668 13C13.6668 13.221 13.579 13.433 13.4228 13.5893C13.2665 13.7455 13.0545 13.8333 12.8335 13.8333H6.8585C6.68633 14.3213 6.36705 14.7438 5.94466 15.0427C5.52228 15.3415 5.01759 15.502 4.50016 15.502C3.98273 15.502 3.47805 15.3415 3.05566 15.0427C2.63328 14.7438 2.314 14.3213 2.14183 13.8333H1.16683C0.945816 13.8333 0.733854 13.7455 0.577574 13.5893C0.421294 13.433 0.333496 13.221 0.333496 13C0.333496 12.779 0.421294 12.567 0.577574 12.4107C0.733854 12.2545 0.945816 12.1667 1.16683 12.1667H2.14183Z" fill="#008C8C"/>
</svg>
