<svg width="14" height="10" viewBox="0 0 14 10" fill="none" xmlns="http://www.w3.org/2000/svg">
<path d="M0.333496 0.833333C0.333496 0.61232 0.421294 0.400358 0.577574 0.244078C0.733854 0.0877975 0.945816 0 1.16683 0H12.8335C13.0545 0 13.2665 0.0877975 13.4228 0.244078C13.579 0.400358 13.6668 0.61232 13.6668 0.833333C13.6668 1.05435 13.579 1.26631 13.4228 1.42259C13.2665 1.57887 13.0545 1.66667 12.8335 1.66667H1.16683C0.945816 1.66667 0.733854 1.57887 0.577574 1.42259C0.421294 1.26631 0.333496 1.05435 0.333496 0.833333ZM2.00016 5C2.00016 4.77899 2.08796 4.56702 2.24424 4.41074C2.40052 4.25446 2.61248 4.16667 2.8335 4.16667H11.1668C11.3878 4.16667 11.5998 4.25446 11.7561 4.41074C11.9124 4.56702 12.0002 4.77899 12.0002 5C12.0002 5.22101 11.9124 5.43297 11.7561 5.58926C11.5998 5.74554 11.3878 5.83333 11.1668 5.83333H2.8335C2.61248 5.83333 2.40052 5.74554 2.24424 5.58926C2.08796 5.43297 2.00016 5.22101 2.00016 5ZM3.66683 9.16667C3.66683 8.94565 3.75463 8.73369 3.91091 8.57741C4.06719 8.42113 4.27915 8.33333 4.50016 8.33333H9.50016C9.72118 8.33333 9.93314 8.42113 10.0894 8.57741C10.2457 8.73369 10.3335 8.94565 10.3335 9.16667C10.3335 9.38768 10.2457 9.59964 10.0894 9.75592C9.93314 9.9122 9.72118 10 9.50016 10H4.50016C4.27915 10 4.06719 9.9122 3.91091 9.75592C3.75463 9.59964 3.66683 9.38768 3.66683 9.16667Z" fill="#008C8C"/>
</svg>
