<svg width="15" height="15" viewBox="0 0 15 15" fill="none" xmlns="http://www.w3.org/2000/svg">
<path d="M7.25828 0.117035L9.07329 1.87536H11.6132V4.33588L13.4282 6.09421L11.6132 7.85253V10.3131H9.07329L7.25828 12.0714L5.44326 10.3131H2.9034V7.85253L1.08838 6.09421L2.9034 4.33588V1.87536H5.44326L7.25828 0.117035Z" fill="#55ACEE"/>
<path d="M7.25797 1.21628L8.33895 3.59243L10.6867 2.92819L10.0006 5.20215L13.139 6.24983L10.0006 7.29705L10.6867 9.57101L8.33895 8.90677L7.25797 14.6041L6.17651 8.90677L3.82971 9.57101L4.51537 7.29705L1.37646 6.24983L4.51537 5.20215L3.82971 2.92819L6.17651 3.59243L7.25797 1.21628Z" fill="#FFD983"/>
<path d="M7.25827 7.50049C8.05998 7.50049 8.70989 6.87088 8.70989 6.09421C8.70989 5.31754 8.05998 4.68793 7.25827 4.68793C6.45656 4.68793 5.80664 5.31754 5.80664 6.09421C5.80664 6.87088 6.45656 7.50049 7.25827 7.50049Z" fill="#F5F8FA"/>
<path d="M3.38658 5.15668C3.29465 5.15668 3.20126 5.13137 3.11852 5.07793L0.215263 3.20289C-0.00683608 3.05945 -0.0668366 2.76835 0.0812293 2.55272C0.229295 2.33709 0.529782 2.27896 0.752365 2.42287L3.65562 4.29791C3.8782 4.44135 3.93772 4.73245 3.78965 4.94808C3.69626 5.08356 3.54287 5.15668 3.38658 5.15668ZM11.1296 5.15668C10.9733 5.15668 10.8194 5.08356 10.7265 4.94808C10.5779 4.73245 10.6379 4.44135 10.8605 4.29791L13.7638 2.42287C13.9864 2.27896 14.2868 2.33709 14.4349 2.55272C14.5835 2.76788 14.5235 3.05945 14.3009 3.20289L11.3976 5.07793C11.3149 5.13137 11.2215 5.15668 11.1296 5.15668ZM0.484298 10.3131C0.328006 10.3131 0.174617 10.2399 0.0812293 10.1045C-0.0668366 9.88883 -0.00683608 9.59819 0.215263 9.45428L3.11852 7.57924C3.34061 7.43486 3.6411 7.49346 3.78965 7.70909C3.93772 7.92472 3.87772 8.21535 3.65562 8.35926L0.752365 10.2343C0.669622 10.2873 0.576234 10.3131 0.484298 10.3131ZM14.5157 10.3131C14.4344 10.3131 14.3517 10.2934 14.2762 10.2512L10.8891 8.37613C10.6573 8.24769 10.5765 7.96128 10.7091 7.73674C10.8417 7.51221 11.1368 7.43345 11.3691 7.56236L14.7562 9.43741C14.988 9.56585 15.0688 9.85226 14.9362 10.0768C14.8472 10.2282 14.6841 10.3131 14.5157 10.3131ZM3.38707 15.0007C3.32126 15.0007 3.25497 14.988 3.19061 14.9604C2.94674 14.8549 2.83642 14.5778 2.94529 14.3416L4.88079 10.1227C4.98918 9.88648 5.27466 9.77913 5.51951 9.88461C5.76338 9.99008 5.8737 10.2671 5.76483 10.5034L3.82933 14.7222C3.74901 14.8966 3.57191 15.0007 3.38707 15.0007ZM11.1296 15.0007C10.9437 15.0007 10.7671 14.8971 10.6868 14.7222L8.75131 10.5034C8.64292 10.2666 8.75276 9.98961 8.99712 9.88461C9.24196 9.7796 9.52745 9.88648 9.63583 10.1227L11.5713 14.3416C11.6797 14.5783 11.5699 14.8553 11.3255 14.9604C11.2617 14.988 11.1954 15.0007 11.1296 15.0007ZM5.80693 2.81288C5.62935 2.81288 5.45854 2.71819 5.37338 2.55365L4.40562 0.678609C4.28611 0.447041 4.38288 0.165315 4.62192 0.0495314C4.86143 -0.0662526 5.15176 0.0279684 5.27128 0.259068L6.23903 2.13411C6.35855 2.36568 6.26177 2.6474 6.02274 2.76319C5.95354 2.79694 5.87951 2.81288 5.80693 2.81288ZM8.70921 2.81288C8.63663 2.81288 8.5626 2.79694 8.4934 2.76366C8.25437 2.64787 8.1576 2.36615 8.27711 2.13458L9.24486 0.259536C9.36486 0.0274996 9.65471 -0.0662526 9.89422 0.0500001C10.1333 0.165784 10.23 0.447509 10.1105 0.679077L9.14277 2.55412C9.0576 2.71819 8.8868 2.81288 8.70921 2.81288Z" fill="#FFCC4D"/>
</svg>
