<svg width="19" height="19" viewBox="0 0 19 19" fill="none" xmlns="http://www.w3.org/2000/svg">
<g clip-path="url(#clip0)">
<path d="M9.25828 4.11703L11.0733 5.87536H13.6132V8.33588L15.4282 10.0942L13.6132 11.8525V14.3131H11.0733L9.25828 16.0714L7.44326 14.3131H4.9034V11.8525L3.08838 10.0942L4.9034 8.33588V5.87536H7.44326L9.25828 4.11703Z" fill="#55ACEE"/>
<path d="M9.25797 5.21628L10.3389 7.59243L12.6867 6.92819L12.0006 9.20215L15.139 10.2498L12.0006 11.297L12.6867 13.571L10.3389 12.9068L9.25797 18.6041L8.17651 12.9068L5.82971 13.571L6.51537 11.297L3.37646 10.2498L6.51537 9.20215L5.82971 6.92819L8.17651 7.59243L9.25797 5.21628Z" fill="#FFD983"/>
<path d="M9.25827 11.5005C10.06 11.5005 10.7099 10.8709 10.7099 10.0942C10.7099 9.31754 10.06 8.68793 9.25827 8.68793C8.45656 8.68793 7.80664 9.31754 7.80664 10.0942C7.80664 10.8709 8.45656 11.5005 9.25827 11.5005Z" fill="#F5F8FA"/>
<path d="M5.38658 9.15668C5.29465 9.15668 5.20126 9.13137 5.11852 9.07793L2.21526 7.20289C1.99316 7.05945 1.93316 6.76835 2.08123 6.55272C2.2293 6.33709 2.52978 6.27896 2.75236 6.42287L5.65562 8.29791C5.8782 8.44135 5.93772 8.73245 5.78965 8.94808C5.69626 9.08356 5.54287 9.15668 5.38658 9.15668ZM13.1296 9.15668C12.9733 9.15668 12.8194 9.08356 12.7265 8.94808C12.5779 8.73245 12.6379 8.44135 12.8605 8.29791L15.7638 6.42287C15.9864 6.27896 16.2868 6.33709 16.4349 6.55272C16.5835 6.76788 16.5235 7.05945 16.3009 7.20289L13.3976 9.07793C13.3149 9.13137 13.2215 9.15668 13.1296 9.15668ZM2.4843 14.3131C2.32801 14.3131 2.17462 14.2399 2.08123 14.1045C1.93316 13.8888 1.99316 13.5982 2.21526 13.4543L5.11852 11.5792C5.34061 11.4349 5.6411 11.4935 5.78965 11.7091C5.93772 11.9247 5.87772 12.2153 5.65562 12.3593L2.75236 14.2343C2.66962 14.2873 2.57623 14.3131 2.4843 14.3131ZM16.5157 14.3131C16.4344 14.3131 16.3517 14.2934 16.2762 14.2512L12.8891 12.3761C12.6573 12.2477 12.5765 11.9613 12.7091 11.7367C12.8417 11.5122 13.1368 11.4335 13.3691 11.5624L16.7562 13.4374C16.988 13.5658 17.0688 13.8523 16.9362 14.0768C16.8472 14.2282 16.6841 14.3131 16.5157 14.3131ZM5.38707 19.0007C5.32126 19.0007 5.25497 18.988 5.19061 18.9604C4.94674 18.8549 4.83642 18.5778 4.94529 18.3416L6.88079 14.1227C6.98918 13.8865 7.27466 13.7791 7.51951 13.8846C7.76338 13.9901 7.8737 14.2671 7.76483 14.5034L5.82933 18.7222C5.74901 18.8966 5.57191 19.0007 5.38707 19.0007ZM13.1296 19.0007C12.9437 19.0007 12.7671 18.8971 12.6868 18.7222L10.7513 14.5034C10.6429 14.2666 10.7528 13.9896 10.9971 13.8846C11.242 13.7796 11.5274 13.8865 11.6358 14.1227L13.5713 18.3416C13.6797 18.5783 13.5699 18.8553 13.3255 18.9604C13.2617 18.988 13.1954 19.0007 13.1296 19.0007ZM7.80693 6.81288C7.62935 6.81288 7.45854 6.71819 7.37338 6.55365L6.40562 4.67861C6.28611 4.44704 6.38288 4.16532 6.62192 4.04953C6.86143 3.93375 7.15176 4.02797 7.27128 4.25907L8.23903 6.13411C8.35855 6.36568 8.26177 6.6474 8.02274 6.76319C7.95354 6.79694 7.87951 6.81288 7.80693 6.81288ZM10.7092 6.81288C10.6366 6.81288 10.5626 6.79694 10.4934 6.76366C10.2544 6.64787 10.1576 6.36615 10.2771 6.13458L11.2449 4.25954C11.3649 4.0275 11.6547 3.93375 11.8942 4.05C12.1333 4.16578 12.23 4.44751 12.1105 4.67908L11.1428 6.55412C11.0576 6.71819 10.8868 6.81288 10.7092 6.81288Z" fill="#FFCC4D"/>
</g>
<defs>
<clipPath id="clip0">
<rect width="19" height="19" fill="white"/>
</clipPath>
</defs>
</svg>
