<svg width="11" height="14" viewBox="0 0 11 14" fill="none" xmlns="http://www.w3.org/2000/svg">
<path d="M8.03831 12.5128C8.03831 13.3766 7.28058 14.0769 6.346 14.0769H3.80754C2.87297 14.0769 2.11523 13.3766 2.11523 12.5128V1.5641C2.11523 0.700327 2.87297 0 3.80754 0H6.346C7.28058 0 8.03831 0.700327 8.03831 1.5641V12.5128Z" fill="#31373D"/>
<path d="M11.0002 7.03846C11.0002 6.60677 10.6211 6.25641 10.154 6.25641H9.73092C9.26384 6.25641 8.88477 6.60677 8.88477 7.03846C8.88477 7.47015 9.26384 7.82051 9.73092 7.82051H10.154C10.6211 7.82051 11.0002 7.47015 11.0002 7.03846Z" fill="#99AAB5"/>
<path d="M0 7.03847C0 4.44714 2.27319 2.34616 5.07692 2.34616C7.88108 2.34616 10.1538 4.44714 10.1538 7.03847C10.1538 9.6298 7.88108 11.7308 5.07692 11.7308C2.27319 11.7308 0 9.6298 0 7.03847Z" fill="#CCD6DD"/>
<path d="M1.69238 7.03845C1.69238 5.3109 3.20784 3.91025 5.077 3.91025C6.94658 3.91025 8.46161 5.3109 8.46161 7.03845C8.46161 8.766 6.94658 10.1667 5.077 10.1667C3.20784 10.1667 1.69238 8.766 1.69238 7.03845Z" fill="#F5F8FA"/>
<path d="M7.19227 8.60256C7.11823 8.60256 7.04292 8.58457 6.97481 8.54664L4.85942 7.37356C4.73208 7.30318 4.65381 7.17609 4.65381 7.03845V4.30127C4.65381 4.08543 4.84335 3.91025 5.07689 3.91025C5.31042 3.91025 5.49996 4.08543 5.49996 4.30127V6.81713L7.41058 7.87603C7.61112 7.98708 7.67585 8.22717 7.55569 8.41252C7.47615 8.53491 7.33612 8.60256 7.19227 8.60256Z" fill="#66757F"/>
</svg>
