<svg width="26" height="26" viewBox="0 0 26 26" fill="none" xmlns="http://www.w3.org/2000/svg">
<path d="M14.4212 4.39536L15.3887 3.42031C17.2887 1.50558 20.3818 1.45819 22.2926 3.36189C23.0167 4.08484 23.4979 5.01821 23.6686 6.03089C23.8392 7.04359 23.6908 8.08472 23.2442 9.00805C23.03 9.44912 22.9578 9.9466 23.0377 10.431C23.1177 10.9154 23.3457 11.3626 23.6901 11.71C24.3233 11.0704 24.8252 10.3113 25.1671 9.47615C25.5091 8.64097 25.6845 7.74608 25.6833 6.84259C25.6819 5.93911 25.5042 5.04471 25.1598 4.21053C24.8155 3.37633 24.3114 2.61869 23.6764 1.98088C21.0044 -0.696765 16.6672 -0.643481 14.0027 2.04168L4.78077 11.3353L4.02264 10.5712C2.0905 8.62402 2.07818 5.44111 4.04442 3.52851C4.77223 2.82274 5.69947 2.36201 6.69818 2.20992C7.69688 2.05784 8.71779 2.22191 9.62003 2.67947C10.0318 2.89214 10.4998 2.96822 10.9571 2.89684C11.4144 2.82547 11.8376 2.61029 12.1662 2.28203L12.1898 2.25846C12.1971 2.25114 12.2029 2.24242 12.2068 2.23282C12.2108 2.22323 12.2128 2.21293 12.2128 2.20254C12.2128 2.19215 12.2108 2.18185 12.2068 2.17226C12.2029 2.16267 12.1971 2.15396 12.1898 2.14662C10.9205 0.899592 9.21959 0.199138 7.44697 0.193474C5.67437 0.187813 3.96909 0.877385 2.692 2.11628C-0.0589866 4.79267 -0.0491561 9.24325 2.65468 11.9682L11.8739 21.2592L10.8946 22.2462C8.99464 24.1609 5.90142 24.2083 3.99067 22.3046C3.26662 21.5817 2.78545 20.6483 2.61476 19.6356C2.44407 18.623 2.59241 17.5819 3.03897 16.6585C3.25321 16.2174 3.32541 15.7199 3.24551 15.2356C3.16559 14.7511 2.93754 14.3039 2.59322 13.9565C1.96003 14.5962 1.4581 15.3552 1.1161 16.1903C0.774088 17.0256 0.598712 17.9204 0.599982 18.8239C0.601253 19.7274 0.779146 20.6218 1.1235 21.456C1.46786 22.2902 1.97193 23.0478 2.60691 23.6856C5.27877 26.3634 9.61605 26.3102 12.2806 23.6249L21.5145 14.319L22.2755 15.0859C24.1754 17.0006 24.2224 20.1178 22.3334 22.0435C21.6161 22.7733 20.6899 23.2581 19.6851 23.4302C18.6803 23.6023 17.6472 23.4527 16.7309 23.0026C16.2932 22.7866 15.7993 22.7137 15.3184 22.7945C14.8376 22.8751 14.3937 23.1051 14.049 23.4524C14.6837 24.0906 15.4369 24.5965 16.2655 24.9411C17.0943 25.2858 17.9822 25.4626 18.8788 25.4613C19.7753 25.4599 20.6628 25.2807 21.4905 24.9336C22.3183 24.5866 23.07 24.0786 23.7029 23.4386C26.3599 20.746 26.3071 16.3749 23.6427 13.6897L14.4212 4.39536ZM13.2506 19.8712L6.15782 12.7232L13.0441 5.78339L20.1368 12.9314L13.2506 19.8712Z" fill="#008C8C"/>
</svg>
