<svg width="25" height="25" viewBox="0 0 25 25" fill="none" xmlns="http://www.w3.org/2000/svg">
<path d="M5 13.4C5 14.45 5.85 15 7 15H10.35C10.1 15.9 10 16.75 10 17.5C10 20.4 10.8 21 11.5 21C11.95 21 12.3 20.95 12.75 20.7C12.9 20.6 12.95 20.5 13 20.35L13.5 17.65C14.05 16.25 15.4 15 16.5 14.15V7C16.1 7 15.7 6.8 15.2 6.55C14.65 6.3 14.1 6 13.5 6H8.75C7.75 6 7 6.8 7 7.5C7 7.65 7 7.75 7.05 7.85C6.45 8.1 6 8.6 6 9.25C6 9.55 6.05 9.8 6.15 10.05C5.75 10.3 5.4 10.75 5.4 11.25C5.4 11.55 5.55 11.85 5.7 12.1C5.3 12.4 5 12.9 5 13.4ZM6.05 13.4C6.05 12.75 6.7 12.7 6.8 12.4C6.9 12.05 6.4 11.95 6.4 11.35C6.4 10.75 7.15 10.75 7.25 10.4C7.35 10 7 9.9 7 9.3V9.2C7.1 8.7 7.85 8.65 8 8.45C8.15 8.2 8 8.1 8 7.55C8 7.25 8.35 7.05 8.75 7.05H13.5C13.9 7.05 14.3 7.25 14.8 7.5C15.2 7.7 15.6 7.9 16 8V13.25C14.75 14.2 13.15 15.6 12.55 17.35V17.45L12.1 19.95C11.9 20 11.75 20 11.5 20C11.4 20 11 19.4 11 17.5C11 16.75 11.15 15.95 11.4 15H11.5C11.8 15 12 14.8 12 14.5C12 14.2 11.8 14 11.5 14H7C6.5 14 6.05 13.75 6.05 13.4Z" fill="#555555"/>
<path d="M17 6H20C20.55 6 21 6.45 21 7V14C21 14.55 20.55 15 20 15H17C16.45 15 16 14.55 16 14V7C16 6.45 16.45 6 17 6ZM20 14V7H17V14H20Z" fill="#555555"/>
</svg>
