<svg width="25" height="25" viewBox="0 0 25 25" fill="none" xmlns="http://www.w3.org/2000/svg">
<path d="M20 11.6C20 10.55 19.15 10 18 10H14.65C14.9 9.1 15 8.25 15 7.5C15 4.6 14.2 4 13.5 4C13.05 4 12.7 4.05 12.25 4.3C12.1 4.4 12.05 4.5 12 4.65L11.5 7.35C10.95 8.75 9.6 10 8.5 10.85V18C8.9 18 9.3 18.2 9.8 18.45C10.35 18.7 10.9 19 11.5 19H16.25C17.25 19 18 18.2 18 17.5C18 17.35 18 17.25 17.95 17.15C18.55 16.9 19 16.4 19 15.75C19 15.45 18.95 15.2 18.85 14.95C19.25 14.7 19.6 14.25 19.6 13.75C19.6 13.45 19.45 13.15 19.3 12.9C19.7 12.6 20 12.1 20 11.6ZM18.95 11.6C18.95 12.25 18.3 12.3 18.2 12.6C18.1 12.95 18.6 13.05 18.6 13.65C18.6 14.25 17.85 14.25 17.75 14.6C17.65 15 18 15.1 18 15.7V15.8C17.9 16.3 17.15 16.35 17 16.55C16.85 16.8 17 16.9 17 17.45C17 17.75 16.65 17.95 16.25 17.95H11.5C11.1 17.95 10.7 17.75 10.2 17.5C9.8 17.3 9.4 17.1 9 17V11.75C10.25 10.8 11.85 9.4 12.45 7.65V7.55L12.9 5.05C13.1 5 13.25 5 13.5 5C13.6 5 14 5.6 14 7.5C14 8.25 13.85 9.05 13.6 10H13.5C13.2 10 13 10.2 13 10.5C13 10.8 13.2 11 13.5 11H18C18.5 11 18.95 11.25 18.95 11.6Z" fill="#555555"/>
<path d="M8 19H5C4.45 19 4 18.55 4 18V11C4 10.45 4.45 10 5 10H8C8.55 10 9 10.45 9 11V18C9 18.55 8.55 19 8 19ZM5 11V18H8V11H5Z" fill="#555555"/>
</svg>
